<?xml version="1.0" encoding="iso-8859-1"?>
<!-- Generator: Adobe Illustrator 19.0.0, SVG Export Plug-In . SVG Version: 6.00 Build 0)  -->
<svg version="1.1" id="Layer_1" xmlns="http://www.w3.org/2000/svg" xmlns:xlink="http://www.w3.org/1999/xlink" x="0px" y="0px"
	 viewBox="0 0 512 512" style="enable-background:new 0 0 512 512;" xml:space="preserve">
<g>
	<g>
		<polygon points="107.466,40.559 107.466,471.441 176.921,471.441 176.921,456.234 122.674,456.234 122.674,55.766 389.326,55.766 
			389.326,456.234 197.2,456.234 197.2,471.441 404.534,471.441 404.534,40.559 		"/>
	</g>
</g>
<g>
	<g>
		<path d="M256,93.872c-31.04,0-56.293,25.252-56.293,56.292s25.253,56.292,56.293,56.292s56.292-25.252,56.292-56.292
			S287.039,93.872,256,93.872z M256,191.247c-22.655,0-41.085-18.43-41.085-41.084c0-22.654,18.431-41.084,41.085-41.084
			c22.654,0,41.084,18.43,41.084,41.084S278.654,191.247,256,191.247z"/>
	</g>
</g>
<g>
	<g>
		<path d="M256,231.736c-51.389,0-93.196,41.808-93.196,93.196s41.808,93.196,93.196,93.196c51.389,0,93.196-41.808,93.196-93.196
			S307.389,231.736,256,231.736z M256,402.921c-43.003,0-77.988-34.985-77.988-77.988s34.985-77.988,77.988-77.988
			s77.988,34.985,77.988,77.988S299.003,402.921,256,402.921z"/>
	</g>
</g>
<g>
	<g>
		<path d="M256,286.679c-21.094,0-38.255,17.161-38.255,38.254c0,21.092,17.161,38.253,38.255,38.253s38.255-17.161,38.255-38.253
			C294.255,303.84,277.094,286.679,256,286.679z M256,347.978c-12.708,0-23.047-10.337-23.047-23.045s10.339-23.046,23.047-23.046
			c12.708,0,23.047,10.338,23.047,23.046C279.047,337.639,268.708,347.978,256,347.978z"/>
	</g>
</g>
<g>
	<g>
		<path d="M85.968,194.42l-10.754-10.753c-39.884,39.884-39.884,104.781,0,144.665l10.754-10.754
			C52.014,283.624,52.014,228.375,85.968,194.42z"/>
	</g>
</g>
<g>
	<g>
		<path d="M53.922,162.375l-10.753-10.753C15.332,179.46,0,216.528,0,255.999c0,39.472,15.332,76.541,43.169,104.378l10.753-10.755
			C2.298,297.998,2.298,213.999,53.922,162.375z"/>
	</g>
</g>
<g>
	<g>
		<path d="M436.786,183.667l-10.753,10.753c33.954,33.955,33.954,89.204,0,123.158l10.753,10.754
			C476.67,288.448,476.67,223.552,436.786,183.667z"/>
	</g>
</g>
<g>
	<g>
		<path d="M468.831,151.623l-10.753,10.753c24.965,24.965,38.714,58.215,38.714,93.623c0,35.409-13.749,68.659-38.715,93.624
			l10.754,10.754C496.668,332.539,512,295.471,512,255.999C512,216.528,496.668,179.461,468.831,151.623z"/>
	</g>
</g>
<g>
</g>
<g>
</g>
<g>
</g>
<g>
</g>
<g>
</g>
<g>
</g>
<g>
</g>
<g>
</g>
<g>
</g>
<g>
</g>
<g>
</g>
<g>
</g>
<g>
</g>
<g>
</g>
<g>
</g>
</svg>
